PathFileType	4	(X/Y/Z)	32_2_8_p0_0-151_filt_butterworth.trc
DataRate	CameraRate	NumFrames	NumMarkers	Units	OrigDataRate	OrigDataStartFrame	OrigNumFrames
60.0	60.0	7	27	m	60.0	94	151
Frame#	Time	RHip			RKnee			RAnkle			RBigToe			RSmallToe			RHeel			LHip			LKnee			LAnkle			LBigToe			LSmallToe			LHeel			Neck			Head			Nose			RShoulder			RElbow			RWrist			RThumb			RIndex			RPinky			LShoulder			LElbow			LWrist			LThumb			LIndex			LPinky			
		X1	Y1	Z1	X2	Y2	Z2	X3	Y3	Z3	X4	Y4	Z4	X5	Y5	Z5	X6	Y6	Z6	X7	Y7	Z7	X8	Y8	Z8	X9	Y9	Z9	X10	Y10	Z10	X11	Y11	Z11	X12	Y12	Z12	X13	Y13	Z13	X14	Y14	Z14	X15	Y15	Z15	X16	Y16	Z16	X17	Y17	Z17	X18	Y18	Z18	X19	Y19	Z19	X20	Y20	Z20	X21	Y21	Z21	X22	Y22	Z22	X23	Y23	Z23	X24	Y24	Z24	X25	Y25	Z25	X26	Y26	Z26	X27	Y27	Z27	
94	1.5666666666666669	0.3428901309808568	0.4822616446879721	1.0700136784774754	0.33306642231443456	0.4758889032415623	1.4881242580765393	0.31199225264930586	0.45339401061110535	1.8889007577016526	0.3026754759244224	0.3277532155608491	1.9094264858735732	0.3692445664611627	0.3370911469565151	1.9087635408291805	0.2893703522322206	0.5440472702630679	1.9989243619298938	0.15577160627068154	0.4577529121642814	1.0652061268117707	0.14947647581890097	0.48561054316818253	1.4926112784129142	0.13766701071408133	0.5080780265478879	1.9457746377461258	0.15146204956593784	0.32157283772681816	1.906851168784081	0.1085728650770019	0.3668538208630058	1.9277006296295738	0.154175611593012	0.5303359661036172	1.9864814991690882	0.24624164382159003	0.4570739686482631	0.5031455104561443	0.22325092904575605	0.3824720100194788	0.26068488913649623	0.23294484775089197	0.32570102671199824	0.39270647203441866	0.39038505054565675	0.44872506250519717	0.5608603055776129	0.4389379763632398	0.27489120986244703	0.6960497293356812	0.34596891673974617	0.08098668284836058	0.5295113827503657	0.28501574913288424	0.08030247530850687	0.44488053333147903	0.299625825239593	0.03928342222279479	0.43775247753714236	0.30483823819899974	0.010351568567298927	0.471995333973557	0.09333621155537203	0.4994820381199052	0.5903825300159725	0.019987878820236556	0.49656238746523196	0.8048977342015808	0.11247040219760235	0.330428714902057	0.8765759624309035	0.16586892161414318	0.2369966422236264	0.8657066595922454	0.15613530055351166	0.21324663119873688	0.8721215807378917	0.13754451714645965	0.2588288695588512	0.9385416836042151
95	1.5833333333333333	0.3429153044952956	0.4822971931570409	1.0700647106828052	0.33288952814380923	0.47588503908524016	1.4859247355055252	0.3119642091187445	0.4534078442231794	1.8889171164834715	0.3026139082254943	0.3278997257515141	1.9095525150882222	0.36979257088182343	0.32939567508441153	1.9041332702600278	0.28937092623518784	0.5441661078751355	1.9988811995287001	0.15589452887370842	0.4571774086141529	1.0627505974374136	0.14952255210561927	0.4854361345668972	1.4924968169383395	0.13887074737504337	0.5086552579673037	1.9459267367110884	0.15175920383063557	0.3239127565028863	1.9082023355201623	0.10815045506971527	0.3669600872361868	1.927825281925512	0.1542280603835417	0.5305135050957495	1.986461124471878	0.24629738911267066	0.45708690862758333	0.5031697868328769	0.22315355875154508	0.38254625050300267	0.26065372951116	0.2319159844688516	0.3261166492728542	0.3916297208934709	0.3905316291475944	0.4491482542349348	0.5608943397205728	0.44086509163770526	0.2781759112472127	0.6994300910433975	0.3493733183197795	0.08420884593717028	0.5316100064010175	0.29241442639708026	0.07101336309305073	0.44418343696529616	0.30261862471467665	0.0380225625653731	0.43748616479072566	0.30543541163309185	0.013161213418839756	0.4707956151350456	0.09416604524883089	0.5023198539374492	0.5910289056814262	0.01998605460361656	0.4918586648419323	0.8034876074592279	0.11257837857138492	0.33044674779155997	0.8765974777929229	0.16531986101246288	0.2370265454817151	0.8656820313004847	0.15555389942055853	0.21100005215195206	0.8713583216187774	0.1376493646307706	0.2586204158620853	0.9383002590833769
96	1.6	0.3429255725402471	0.48257270689493104	1.0699935397647482	0.3327298593326373	0.47560991398946995	1.483298998515311	0.31190821967329135	0.4533013316278553	1.8888641393896672	0.30251690326503267	0.32821086100182023	1.9097708939445652	0.36977892246724403	0.32168686069731406	1.8999509738067024	0.2893842593261619	0.5442816144671221	1.9989260199766177	0.15588467524943672	0.456636358174448	1.0616952343810206	0.1496183104253815	0.4851659560585496	1.4922937544688102	0.1404382493047682	0.5093737052201771	1.9461198762778085	0.152071594590073	0.3253488069596341	1.909293370994622	0.10761989658670115	0.365947449257515	1.9270941608617143	0.1543398267747482	0.5306927215918591	1.9864231127224903	0.24622071810039373	0.45684781711891626	0.5031056551351684	0.22308200671219233	0.3824297548050092	0.2606662298986683	0.23057501345587883	0.3295287666272215	0.3905973013972835	0.3906764012515369	0.4492981810973382	0.5610275158924074	0.44341745171011493	0.28233768095089423	0.7037869098571722	0.3533101193609125	0.08578492711761926	0.5349596792969629	0.299199560028653	0.06074581136372927	0.44443002397561354	0.3058847153337005	0.03638276110652376	0.4381932441433393	0.3097253424653862	0.01777129184420017	0.4721707163985755	0.09489398721069378	0.5062911414943827	0.5915994423337145	0.019896092853063166	0.49015933526902133	0.8030430796089029	0.11245534639535101	0.3303381547598231	0.8767002096734631	0.16466903280173667	0.23608401736671486	0.8649839512111371	0.1546809397330818	0.20601318366811933	0.869377471781033	0.13563996043712823	0.26008695194521775	0.9379182665249239
97	1.6166666666666667	0.34292411552847674	0.4824217985319646	1.06948685614317	0.33258833539674787	0.4747375863230043	1.4819246224969274	0.3118611370745224	0.45301634071649377	1.8886561207120849	0.3025244024184611	0.3282193495390031	1.9097919180192262	0.3693858822858465	0.3170019814161942	1.8978272923319555	0.2894269782330096	0.5442642530161793	1.9993441040545066	0.15543103444839348	0.4565300655198327	1.0619950008484094	0.14959665384643916	0.48526966717102715	1.4922266298811944	0.14160612866602645	0.5098954140862626	1.9463697109398463	0.15234274131047554	0.3256953134158489	1.9104007136093926	0.10743562509717589	0.36305405886247516	1.9256194940363425	0.15441095774649763	0.530759936052627	1.986487344469715	0.2459565188399419	0.4566718435749346	0.5029017492270897	0.22305237698880345	0.3821347939349737	0.2606593600972224	0.22849719966682505	0.33528423246696837	0.39029370182565093	0.3908875684758873	0.4490615126318332	0.5611398256448137	0.4452374178005812	0.28862044475420673	0.7094695847069349	0.3573968032277034	0.0860487200229217	0.5408593035856664	0.3043637511294339	0.05164038565442138	0.4469857010658831	0.3094080710120116	0.035043156355061326	0.44102360002828694	0.3191193084413382	0.022110315489885377	0.47765471665866427	0.09449463250581255	0.5097553159258055	0.5920477240557048	0.02025293409351715	0.4912230693439148	0.803090478856074	0.11152708056607925	0.33007619114046566	0.8768738674223571	0.16376899340106973	0.23351406217304996	0.8631848807305409	0.15333593614032912	0.19856815220905275	0.8661063338229481	0.1313119807207268	0.25996271311859964	0.9360404800522418
98	1.6333333333333333	0.34293993699705194	0.4798899423573887	1.0683054553637978	0.3322192796109859	0.47293327232461896	1.4823278766288255	0.31195762252433196	0.45270885373254866	1.888339148012001	0.3029517629018888	0.3267767746949338	1.908824551006854	0.3690698278961742	0.31555512683689363	1.8974107232653818	0.2895039178307911	0.5439035323267992	2.0003369867413294	0.15428519390167014	0.45788024427842994	1.0634544904861123	0.14906269887850124	0.4868259695326564	1.4928743364398727	0.14195043757569878	0.5101198455897242	1.946955898272405	0.15272751030455925	0.32358743129321754	1.9104666898690408	0.10802580925504301	0.3589318544435295	1.9241158525762656	0.15428657113791888	0.530724324179102	1.9870311554596791	0.24543836941394415	0.4565703867409079	0.5025044962993479	0.2230783669143023	0.3819995955993079	0.26042355560771896	0.22507536560019673	0.3416113087661062	0.3903555561128748	0.39108873076601364	0.4485820256957474	0.5611556354865808	0.44506665686265967	0.29751882923494	0.7164969350717797	0.36096441765509246	0.08621618005282894	0.5498868598868174	0.30910920169751943	0.04421134959918725	0.45247823531389897	0.3143056697699114	0.03342407468110191	0.44643556320976796	0.33155474164833526	0.023352732464392834	0.48610861579913633	0.09230256886171727	0.5112742034384027	0.5923930560915524	0.021056507325588315	0.4954045618553597	0.8033535275994459	0.10944741768145888	0.3299610284988348	0.8769103798909199	0.16222086447462025	0.22989688439230588	0.8606231348196705	0.15099811691061488	0.19084407847449647	0.8623525352096816	0.12542555139390582	0.25817078408980365	0.9331175850324536
99	1.65	0.3430336742968563	0.473442040342961	1.0667518803702667	0.33148662799160217	0.4709008779564756	1.483649138829062	0.31239471273683195	0.45306348853133005	1.8883839151116808	0.3040311343957958	0.32301118045274124	1.9062526706211513	0.3690808777506106	0.31585353343900435	1.8977464677261986	0.28959333320972586	0.5431701583681615	2.0016426667682734	0.15272611387699583	0.4615738000620403	1.0658110457647738	0.14770786616464848	0.4906427905713261	1.4947951642960784	0.14165431655842659	0.5102316914194874	1.9481801509334584	0.15337459065286702	0.3176683821799142	1.907786131295322	0.10943745218183602	0.3552760574498144	1.922882280028634	0.15388034396670403	0.5306861306129401	1.9883806800504606	0.24477694600915112	0.456505223058249	0.5018564324412589	0.22320602026011593	0.3831337740121903	0.25982541234260953	0.22053783660268786	0.3475837038199532	0.3896514598250743	0.3911742316185376	0.44806530720110066	0.5612568995878375	0.44368130444492027	0.30775064303343347	0.724870943699458	0.3640862420605547	0.08687629208310654	0.5615835930143712	0.31682795510000605	0.03750221398227555	0.4598210509940083	0.32297409706157165	0.029673008687384966	0.4540070028771569	0.34284353451456756	0.020672200865019044	0.4961472428602677	0.0886194010589036	0.5094469964094271	0.5922479718625291	0.02153365855667153	0.5020078892531378	0.8037067997056457	0.10698666842537058	0.33066497276158124	0.876219299759935	0.16015130587772916	0.2268119757255254	0.8584262215047598	0.1478126534580747	0.1856936189750876	0.8592985336396484	0.11967578793137845	0.2565920348470356	0.9291875571006188
100	1.6666666666666667	0.3432448552556731	0.4649286530179389	1.0655451239394662	0.33080702638810316	0.47146124312620175	1.4857558900153955	0.3131209749607397	0.45549634329422783	1.8899176310615873	0.3054547582549956	0.3179819876521742	1.9028048991266107	0.36949240196761823	0.3169968513928318	1.898473806571478	0.2897394077158351	0.5426768372701974	2.0028637942731624	0.15148228749674097	0.4666987486721942	1.0685791552883936	0.14584466534624818	0.495680716720878	1.497788824139299	0.14114464577206917	0.5103913605655712	1.9497712858907688	0.15414762829468742	0.3096185663733442	1.9030026130934001	0.11117211854754849	0.353114137347969	1.9219783022194057	0.1533327055655249	0.5307349610843078	1.990203052986443	0.24407592870052158	0.4564288839344406	0.5007777281186239	0.2234133856811042	0.38722559451700916	0.25914848975124793	0.21619643057982021	0.3529247456156588	0.3873419915551539	0.39114715687509616	0.44766472062422447	0.5620004178428333	0.44294608765151583	0.3169132720066065	0.7339760758612811	0.367722060925767	0.087705167137715	0.5752236900942563	0.3310457202533209	0.029754469914509404	0.46719210474612016	0.33672358586867723	0.022943023616056577	0.46381586444451667	0.3498586793640296	0.017411683825688657	0.50928236153359	0.08444627002823833	0.503203298498181	0.5908771268491751	0.020896585897452167	0.507791699097137	0.8040121691426013	0.1054302905884072	0.33277095983536764	0.874075082114886	0.15806932029221682	0.22477977824311457	0.8570658169981809	0.1449156521479848	0.18370500733940368	0.8572272845987482	0.11580365240769976	0.2556290417042301	0.9227077713251697
